<svg id="kyonomoLogo" width="36" height="24" viewBox="0 0 36 24" fill="none" xmlns="http://www.w3.org/2000/svg">
<g clip-path="url(#clip0)">
<path d="M8.12781 8.8052L6.58073 17.0154C6.51349 17.3782 6.5924 17.7529 6.80022 18.0576C7.00804 18.3624 7.32789 18.5724 7.68992 18.6419L13.7049 19.7775C14.0673 19.8448 14.4416 19.7658 14.7461 19.5578C15.0505 19.3498 15.2604 19.0296 15.3298 18.6673L16.7221 11.2781" stroke="black" stroke-linecap="round" stroke-linejoin="round"/>
<path d="M7.97302 9.62646L6.60599 9.36837C6.09858 9.27406 5.5745 9.38461 5.14826 9.67586C4.72201 9.96711 4.42825 10.4154 4.33115 10.9227L3.81546 13.6595C3.72125 14.1674 3.83169 14.692 4.12266 15.1186C4.41362 15.5453 4.86146 15.8393 5.36833 15.9365L6.73536 16.1946" stroke="black" stroke-miterlimit="10" stroke-linecap="round"/>
<path d="M12.1413 11.5469L11.1099 17.0204" stroke="black" stroke-linecap="round" stroke-linejoin="round"/>
<path d="M9.95404 11.1338L8.92266 16.6073" stroke="black" stroke-linecap="round" stroke-linejoin="round"/>
<path d="M14.3286 11.9595L13.2972 17.433" stroke="black" stroke-linecap="round" stroke-linejoin="round"/>
<path d="M9.78857 6.00149C9.3535 5.91935 8.90365 6.01357 8.53798 6.26343C8.17231 6.51329 7.92078 6.89832 7.83872 7.33382C7.75665 7.76932 7.85078 8.21961 8.1004 8.58563C8.35002 8.95166 8.73467 9.20344 9.16974 9.28558C9.62257 9.37108 10.2186 9.22463 10.5716 8.98343L14.741 9.77062C14.8726 10.5748 15.4575 11.0395 16.1752 11.175C16.6103 11.2572 17.0601 11.163 17.4258 10.9131C17.7914 10.6632 18.043 10.2782 18.125 9.84271C18.2071 9.40721 18.113 8.95692 17.8634 8.5909C17.6137 8.22487 17.2291 7.97309 16.794 7.89095C16.4716 7.84401 16.1425 7.89273 15.8474 8.03107" stroke="black" stroke-linecap="round" stroke-linejoin="round"/>
<path d="M17.4538 8.17219C17.6129 8.06456 17.748 7.92512 17.8506 7.76267C17.9532 7.60021 18.0211 7.41824 18.0501 7.22822C18.079 7.0382 18.0683 6.84425 18.0187 6.65857C17.969 6.47289 17.8815 6.29951 17.7617 6.14933C17.6418 5.99916 17.4922 5.87545 17.3223 5.78599C17.1523 5.69653 16.9657 5.64326 16.7742 5.62953C16.5826 5.61581 16.3903 5.64192 16.2094 5.70623C16.0284 5.77053 15.8627 5.87164 15.7227 6.00319C15.7227 6.00319 15.3921 6.31523 15.3599 6.48628" stroke="black" stroke-miterlimit="10" stroke-linecap="round"/>
<path d="M16.0459 5.50717C15.5794 4.71693 14.8303 4.11886 13.8587 3.93542C12.0685 3.59744 10.37 4.79441 10.0324 6.58595C9.99378 6.79013 9.9745 6.9975 9.97478 7.20531" stroke="black" stroke-miterlimit="10" stroke-linecap="round"/>
</g>
<g clip-path="url(#clip1)">
<path d="M28.1416 7.93116L29.2611 16.064C29.3095 16.4233 29.2139 16.7872 28.9951 17.0762C28.7763 17.3651 28.4522 17.5557 28.0936 17.6063L22.1353 18.428C21.7763 18.4765 21.4128 18.3807 21.1241 18.1618C20.8354 17.9428 20.645 17.6184 20.5945 17.2593L19.587 9.93975" stroke="black" stroke-linecap="round" stroke-linejoin="round"/>
<path d="M28.2536 8.74414L29.6078 8.55737C30.1103 8.48952 30.6193 8.62352 31.0234 8.9301C31.4276 9.23668 31.6941 9.69092 31.7648 10.1936L32.138 12.9045C32.2057 13.4076 32.0719 13.917 31.7656 14.3216C31.4593 14.7262 31.0055 14.993 30.5034 15.0637L29.1492 15.2504" stroke="black" stroke-miterlimit="10" stroke-linecap="round"/>
<path d="M24.0696 10.4263L24.8159 15.8482" stroke="black" stroke-linecap="round" stroke-linejoin="round"/>
<path d="M26.2362 10.1274L26.9825 15.5494" stroke="black" stroke-linecap="round" stroke-linejoin="round"/>
<path d="M21.9029 10.7251L22.6492 16.147" stroke="black" stroke-linecap="round" stroke-linejoin="round"/>
<path d="M26.6479 5.09864C27.0788 5.0392 27.5157 5.15357 27.8625 5.41658C28.2092 5.67959 28.4374 6.0697 28.4967 6.5011C28.5561 6.93249 28.4419 7.36983 28.1791 7.7169C27.9164 8.06398 27.5266 8.29235 27.0957 8.35179C26.6471 8.41366 26.0693 8.24093 25.7346 7.98703L21.6044 8.55667C21.4362 9.33953 20.8396 9.76712 20.1287 9.86517C19.6977 9.92461 19.2608 9.81024 18.9141 9.54723C18.5673 9.28422 18.3392 8.89411 18.2798 8.46271C18.2204 8.03132 18.3347 7.59398 18.5974 7.24691C18.8602 6.89983 19.2499 6.67146 19.6809 6.61202C19.9996 6.58165 20.3202 6.64547 20.6031 6.7956" stroke="black" stroke-linecap="round" stroke-linejoin="round"/>
<path d="M19.0197 6.85584C18.8688 6.74246 18.743 6.59905 18.6501 6.43461C18.5573 6.27018 18.4995 6.08829 18.4804 5.9004C18.4612 5.71251 18.4811 5.52268 18.5388 5.34287C18.5966 5.16305 18.6909 4.99715 18.8158 4.8556C18.9407 4.71406 19.0935 4.59993 19.2647 4.5204C19.4358 4.44088 19.6216 4.39768 19.8102 4.39353C19.9988 4.38938 20.1863 4.42437 20.3608 4.49629C20.5352 4.56821 20.6929 4.6755 20.8239 4.81142C20.8239 4.81142 21.1333 5.13374 21.1566 5.30318" stroke="black" stroke-miterlimit="10" stroke-linecap="round"/>
<path d="M20.5309 4.30864C21.0272 3.5558 21.7914 3.00531 22.7539 2.87256C24.5272 2.62799 26.136 3.88538 26.3803 5.66004C26.4082 5.86231 26.4171 6.06676 26.4067 6.27069" stroke="black" stroke-miterlimit="10" stroke-linecap="round"/>
</g>
<defs>
<clipPath id="clip0">
<rect width="18.3092" height="19.7858" fill="white" transform="matrix(-0.98264 -0.185524 -0.185174 0.982706 21.6552 4.01221)"/>
</clipPath>
<clipPath id="clip1">
<rect width="16.9809" height="19.087" fill="white" transform="matrix(0.990623 -0.136627 0.136366 0.990659 15.3846 2.32031)"/>
</clipPath>
</defs>
</svg>
