<?xml version="1.0" standalone="no"?>
<!DOCTYPE svg PUBLIC "-//W3C//DTD SVG 20010904//EN"
 "http://www.w3.org/TR/2001/REC-SVG-20010904/DTD/svg10.dtd">
<svg version="1.0" xmlns="http://www.w3.org/2000/svg"
 width="1600.000000pt" height="1600.000000pt" viewBox="0 0 1600.000000 1600.000000"
 preserveAspectRatio="xMidYMid meet">
<metadata>
Created by potrace 1.14, written by Peter Selinger 2001-2017
</metadata>
<g transform="translate(0.000000,1600.000000) scale(0.100000,-0.100000)"
fill="#000000" stroke="none">
<path d="M9638 12895 c-2 -2 -39 -6 -83 -9 -44 -4 -87 -9 -95 -11 -8 -2 -32
-6 -52 -9 -21 -3 -59 -11 -85 -17 -27 -6 -55 -12 -63 -14 -250 -53 -537 -188
-779 -368 -94 -69 -297 -263 -362 -346 -19 -24 -40 -50 -47 -57 -20 -21 -162
-235 -162 -244 0 -4 -57 -10 -127 -13 -71 -3 -140 -8 -155 -11 -16 -3 -40 -8
-54 -11 -51 -8 -160 -47 -239 -84 -328 -156 -561 -470 -619 -835 -13 -83 -14
-279 -2 -336 3 -14 11 -49 17 -78 25 -124 83 -257 163 -376 25 -38 46 -74 46
-81 0 -7 -9 -24 -20 -37 -23 -30 -91 -164 -119 -236 -20 -51 -63 -206 -64
-229 0 -7 -1 -13 -3 -13 -1 0 -35 7 -75 15 -41 8 -87 16 -104 19 -16 3 -113
21 -215 41 -102 20 -196 38 -210 40 -14 2 -122 22 -240 45 -118 22 -231 43
-250 46 -19 3 -42 7 -50 9 -14 4 -309 61 -370 71 -14 2 -45 8 -70 14 -25 5
-94 18 -155 29 -118 22 -125 24 -254 47 -128 23 -176 12 -323 -73 -53 -32
-205 -80 -284 -92 -141 -20 -290 1 -399 56 -39 20 -133 90 -168 126 -70 72
-143 207 -164 304 -10 46 -10 226 0 271 40 180 176 353 340 431 86 40 139 56
226 67 l52 6 -6 -43 c-18 -117 -23 -194 -22 -309 2 -111 5 -130 26 -172 126
-246 472 -241 583 9 18 41 22 66 33 243 19 305 132 603 323 855 59 78 210 229
287 288 372 284 828 383 1290 281 133 -30 198 -48 274 -79 76 -31 96 -44 148
-93 67 -64 124 -86 223 -86 101 -1 160 23 225 89 66 66 89 125 89 225 0 103
-21 154 -100 240 -142 152 -403 267 -774 339 -356 70 -730 55 -1035 -40 -38
-12 -74 -22 -80 -24 -5 -1 -21 -6 -35 -12 -14 -5 -52 -20 -86 -32 -224 -82
-522 -275 -715 -463 -67 -65 -196 -212 -257 -293 -25 -33 -106 -161 -142 -227
l-43 -76 -36 6 c-78 13 -312 7 -406 -12 -113 -22 -299 -89 -367 -132 -21 -13
-40 -24 -44 -24 -8 0 -130 -87 -168 -120 -106 -91 -204 -204 -254 -290 -14
-25 -29 -47 -33 -50 -12 -10 -79 -159 -103 -232 -48 -143 -61 -231 -61 -408 0
-122 5 -186 19 -245 26 -118 73 -250 116 -331 36 -68 37 -73 28 -126 l-10 -56
-31 8 c-18 4 -61 13 -97 19 -84 15 -99 18 -195 37 -44 8 -95 17 -114 20 -18 2
-36 6 -40 8 -27 17 -305 26 -416 13 -317 -36 -614 -177 -841 -402 -147 -145
-243 -283 -316 -455 -38 -87 -85 -238 -92 -294 -2 -17 -11 -65 -20 -106 -24
-120 -48 -243 -50 -265 -1 -11 -8 -45 -14 -75 -6 -30 -14 -69 -17 -85 -2 -17
-15 -87 -29 -155 -13 -69 -29 -152 -35 -185 -12 -67 -16 -88 -31 -160 -5 -27
-11 -61 -14 -75 -4 -22 -32 -174 -42 -225 -2 -11 -8 -45 -14 -75 -6 -30 -13
-66 -16 -80 -3 -14 -7 -43 -10 -65 -3 -21 -7 -42 -9 -45 -23 -37 -22 -418 0
-483 3 -7 6 -23 9 -37 40 -235 184 -514 360 -700 213 -223 492 -376 782 -429
33 -6 70 -13 84 -16 204 -39 292 -56 325 -61 22 -3 43 -9 48 -13 4 -4 1 -40
-8 -80 -25 -118 -30 -169 -29 -291 2 -300 115 -566 333 -780 98 -97 192 -163
313 -220 121 -57 175 -70 558 -140 58 -11 116 -22 130 -25 14 -2 39 -7 55 -11
41 -8 273 -52 310 -58 17 -3 55 -10 85 -16 30 -6 78 -15 105 -20 28 -5 122
-22 210 -39 88 -17 178 -33 200 -37 22 -3 42 -7 45 -9 3 -2 26 -6 50 -10 25
-4 75 -13 112 -21 37 -7 81 -16 98 -19 16 -3 45 -7 63 -11 17 -3 51 -9 75 -15
23 -5 59 -12 80 -15 20 -3 44 -7 52 -9 8 -2 31 -7 50 -10 37 -6 179 -33 345
-65 55 -11 111 -21 125 -24 14 -2 66 -12 115 -21 50 -9 99 -19 110 -21 11 -2
31 -6 45 -9 14 -2 41 -7 60 -10 19 -3 43 -8 53 -11 11 -3 29 -7 40 -9 21 -2
226 -40 277 -50 14 -3 39 -8 55 -11 17 -3 84 -16 150 -29 101 -20 145 -23 275
-21 163 3 230 15 360 62 269 97 498 304 624 564 37 75 81 204 91 263 5 29 54
288 90 477 8 41 17 86 19 100 3 14 23 122 46 240 22 118 43 229 45 245 3 17 7
39 9 50 7 32 74 388 102 535 13 74 29 155 34 180 6 25 13 63 16 85 4 22 7 45
9 50 4 18 16 79 20 100 2 11 4 29 4 39 2 44 20 -5 50 -134 18 -74 41 -173 52
-220 12 -47 23 -93 25 -104 5 -26 43 -187 65 -276 25 -103 90 -380 95 -410 3
-14 12 -47 20 -75 8 -27 14 -50 13 -50 -1 0 1 -10 36 -158 168 -721 175 -746
246 -875 211 -384 611 -611 1036 -588 111 6 151 13 353 62 58 14 116 28 130
30 14 3 72 16 130 30 58 14 112 27 120 29 8 2 33 8 55 13 22 6 51 13 65 16 26
4 607 141 860 201 228 55 397 95 505 120 55 12 249 57 430 100 182 43 368 86
415 97 47 10 92 21 100 23 16 4 143 34 376 90 198 48 293 85 414 163 219 141
377 349 460 603 16 49 32 110 35 137 4 26 9 55 11 64 7 23 6 235 -1 273 -3 17
-7 44 -10 60 -7 43 -11 61 -29 139 -9 38 -15 70 -14 71 4 2 352 84 388 91 92
18 243 67 336 109 60 28 207 112 239 137 156 121 238 205 333 338 65 90 94
143 172 315 49 109 91 342 93 510 2 147 -10 220 -93 570 -34 143 -64 267 -65
275 -7 31 -106 449 -151 639 -9 36 -17 72 -19 80 -4 22 -41 174 -72 301 -70
283 -189 497 -387 695 -149 149 -297 246 -509 333 -40 17 -191 58 -262 72 -75
15 -341 21 -415 10 -111 -17 -135 -21 -148 -25 -16 -6 -266 -64 -302 -71 -14
-3 -57 -13 -96 -23 l-72 -18 -12 56 c-11 54 -10 59 19 118 52 107 96 258 109
378 12 115 6 314 -13 395 -4 14 -11 45 -17 70 -33 144 -141 374 -205 438 -7 7
-20 26 -30 42 -25 43 -187 197 -266 253 -211 151 -491 237 -753 232 -96 -2
-191 -11 -226 -21 -12 -3 -22 5 -34 28 -81 158 -297 417 -465 559 -28 24 -57
49 -63 54 -57 52 -255 180 -371 242 -188 99 -481 192 -684 218 -30 4 -63 9
-75 11 -23 5 -363 13 -368 9z m312 -649 c82 -10 164 -25 220 -42 453 -132 797
-420 1002 -839 40 -81 103 -257 113 -316 3 -18 7 -35 9 -38 2 -3 7 -26 10 -51
3 -25 8 -56 11 -69 2 -13 7 -58 10 -100 8 -101 21 -147 56 -202 36 -56 79 -94
139 -122 65 -30 196 -30 262 1 65 30 124 91 156 160 22 48 27 71 27 142 0 100
-11 208 -31 303 -8 38 -12 73 -9 77 6 10 87 4 165 -11 170 -35 345 -175 423
-341 153 -324 18 -699 -305 -852 -83 -39 -168 -55 -283 -51 -148 4 -240 28
-392 102 -122 60 -173 64 -324 29 -169 -40 -314 -75 -404 -96 -44 -11 -264
-63 -490 -115 -225 -53 -455 -107 -510 -120 -55 -13 -170 -40 -255 -60 -85
-20 -211 -50 -280 -66 -69 -16 -183 -43 -255 -60 -121 -28 -165 -42 -190 -62
-5 -4 -22 -17 -38 -28 -56 -42 -99 -125 -112 -214 -15 -102 -53 -207 -99 -275
-64 -95 -182 -190 -287 -230 -30 -11 -63 -25 -74 -29 -78 -35 -234 -46 -345
-25 -86 16 -213 75 -280 131 -139 115 -227 297 -231 480 -9 334 268 632 586
634 93 0 134 -7 234 -41 64 -22 99 -28 150 -26 143 4 264 102 296 238 34 148
-33 297 -163 362 -214 107 -549 138 -797 75 -56 -14 -155 -49 -188 -66 -39
-20 -51 -13 -81 50 -78 158 -67 336 27 477 85 126 238 211 376 210 91 -1 94
-1 151 -18 115 -34 264 -156 322 -265 89 -167 287 -220 454 -122 86 51 146
155 147 258 1 143 -74 273 -264 458 l-99 95 27 40 c15 21 29 41 32 44 3 3 22
25 43 50 132 163 315 307 502 398 46 22 93 43 106 47 3 1 50 16 105 33 55 17
118 34 140 38 22 3 42 7 45 9 3 2 44 7 90 10 47 4 86 9 88 10 5 4 211 -3 262
-9z m4082 -2942 c261 -50 485 -231 584 -475 15 -35 37 -109 51 -164 28 -117
133 -563 138 -586 2 -9 8 -33 14 -55 5 -21 24 -97 40 -169 17 -71 47 -197 67
-280 19 -82 38 -161 40 -175 3 -14 11 -50 19 -80 27 -105 44 -185 51 -235 44
-317 -124 -649 -406 -802 -57 -30 -165 -71 -210 -79 -14 -3 -41 -9 -60 -15
-97 -27 -383 -88 -390 -84 -5 3 -9 13 -9 23 0 9 -8 53 -19 97 -45 183 -126
524 -137 575 -7 30 -45 190 -84 356 -78 327 -79 332 -91 384 -4 19 -22 96 -40
170 -17 74 -33 142 -35 150 -2 8 -10 42 -18 75 -9 33 -18 71 -21 85 -4 22 -22
100 -81 345 -8 33 -25 107 -39 165 -14 58 -52 220 -85 360 -70 296 -71 302
-51 305 8 2 121 28 250 59 129 30 246 57 260 59 57 8 194 4 262 -9z m-11622
-307 c74 -15 149 -29 165 -32 216 -38 215 -37 211 -59 -37 -195 -68 -360 -76
-396 -5 -25 -16 -83 -25 -130 -8 -47 -18 -96 -20 -110 -6 -32 -25 -132 -31
-165 -6 -37 -11 -64 -24 -125 -6 -30 -13 -64 -14 -75 -7 -42 -27 -152 -36
-195 -5 -25 -12 -61 -15 -80 -3 -19 -17 -91 -30 -160 -14 -69 -27 -140 -30
-158 -3 -18 -12 -64 -20 -103 -8 -38 -17 -84 -20 -102 -5 -40 -12 -79 -25
-137 -5 -25 -23 -119 -40 -210 -17 -91 -33 -176 -36 -190 -2 -14 -7 -38 -9
-55 -3 -16 -10 -50 -15 -75 -14 -68 -71 -369 -75 -399 -2 -14 -13 -72 -24
-129 -12 -57 -21 -105 -21 -107 0 -3 -66 9 -287 51 -73 14 -145 27 -160 30
-294 51 -533 256 -627 537 -47 141 -52 271 -16 460 12 62 30 157 40 212 11 55
22 111 24 125 3 14 14 75 26 135 12 61 32 169 45 240 13 72 29 155 35 185 6
30 13 66 15 80 2 14 9 50 14 80 6 30 13 66 16 80 3 14 7 36 10 50 2 14 7 39
10 55 3 17 7 41 10 55 3 14 12 63 21 110 9 47 18 94 21 105 2 11 6 31 9 45 9
45 69 174 107 232 44 65 143 167 201 207 106 72 237 125 340 137 28 4 52 7 54
9 11 10 192 -7 302 -28z"/>
</g>
</svg>
